<?xml version="1.0" encoding="utf-8"?>
<!-- Generator: Adobe Illustrator 24.1.0, SVG Export Plug-In . SVG Version: 6.00 Build 0)  -->
<svg version="1.1" xmlns="http://www.w3.org/2000/svg" xmlns:xlink="http://www.w3.org/1999/xlink" x="0px" y="0px"
	 viewBox="0 0 2550 1480" style="enable-background:new 0 0 2550 1480;" xml:space="preserve">
<style type="text/css">
	.st0{display:none;fill:#262626;}
	.st1{opacity:0.04;fill:url(#Trazado_58715_1_);enable-background:new    ;}
	.st2{opacity:0.13;}
	.st3{enable-background:new    ;}
	.st4{fill:#9C9C9C;}
	.st5{clip-path:url(#SVGID_2_);}
	.st6{fill:#818181;}
	.st7{fill:#B2B2B2;}
	.st8{opacity:0.46;}
	.st9{fill:url(#SVGID_5_);}
	.st10{clip-path:url(#SVGID_7_);}
	.st11{fill:url(#SVGID_11_);}
	.st12{fill:url(#SVGID_12_);}
	.st13{fill:#A2A2A2;}
	.st14{clip-path:url(#SVGID_14_);}
	.st15{fill:#868686;}
	.st16{fill:#ADADAD;}
	.st17{fill:url(#SVGID_17_);}
	.st18{fill:url(#SVGID_18_);}
	.st19{fill:url(#SVGID_19_);}
	.st20{fill:url(#SVGID_20_);}
	.st21{fill:url(#SVGID_21_);}
	.st22{fill:url(#SVGID_22_);}
	.st23{fill:url(#SVGID_23_);}
	.st24{clip-path:url(#SVGID_25_);}
	.st25{fill:url(#SVGID_28_);}
	.st26{fill:url(#SVGID_29_);}
	.st27{fill:#7A7777;}
	.st28{fill:#969696;}
	.st29{clip-path:url(#SVGID_31_);}
	.st30{fill:#929292;}
	.st31{fill:#B0B0B0;}
	.st32{fill:none;}
	.st33{clip-path:url(#SVGID_35_);}
	.st34{fill:url(#SVGID_39_);}
	.st35{fill:url(#SVGID_40_);}
	.st36{fill:url(#SVGID_41_);}
	.st37{fill:url(#SVGID_42_);}
	.st38{fill:url(#SVGID_43_);}
	.st39{fill:#979797;}
	.st40{clip-path:url(#SVGID_45_);}
	.st41{fill:#8E8E8E;}
	.st42{fill:#B3B3B3;}
	.st43{fill:url(#SVGID_48_);}
	.st44{fill:url(#SVGID_49_);}
	.st45{fill:url(#SVGID_50_);}
	.st46{fill:url(#SVGID_51_);}
	.st47{fill:url(#SVGID_52_);}
	.st48{fill:url(#SVGID_53_);}
	.st49{fill:#545252;}
	.st50{fill:#444242;}
	.st51{fill:url(#SVGID_54_);}
	.st52{fill:url(#SVGID_55_);}
	.st53{fill:url(#SVGID_56_);}
	.st54{fill:url(#SVGID_57_);}
	.st55{fill:url(#SVGID_58_);}
	.st56{fill:url(#SVGID_59_);}
	.st57{fill:url(#SVGID_60_);}
	.st58{fill:url(#SVGID_61_);}
	.st59{fill:url(#SVGID_62_);}
	.st60{fill:url(#SVGID_63_);}
	.st61{fill:url(#SVGID_64_);}
	.st62{fill:url(#SVGID_65_);}
	.st63{fill:url(#SVGID_66_);}
	.st64{fill:url(#SVGID_67_);}
	.st65{fill:url(#SVGID_68_);}
	.st66{fill:url(#SVGID_69_);}
	.st67{fill:url(#SVGID_70_);}
	.st68{fill:url(#SVGID_71_);}
	.st69{fill:url(#SVGID_72_);}
	.st70{fill:url(#SVGID_73_);}
	.st71{fill:url(#SVGID_74_);}
	.st72{fill:#3D3B3B;}
	.st73{fill:#4C4B4B;}
	.st74{fill:url(#SVGID_75_);}
	.st75{clip-path:url(#SVGID_77_);}
	.st76{fill:url(#SVGID_80_);}
	.st77{fill:url(#SVGID_81_);}
	.st78{fill:url(#SVGID_82_);}
	.st79{fill:url(#SVGID_83_);}
	.st80{fill:url(#SVGID_84_);}
	.st81{opacity:0.07;}
	.st82{opacity:0.95;fill:url(#SVGID_85_);}
	.st83{opacity:0.95;fill:url(#SVGID_86_);}
	.st84{opacity:0.95;fill:url(#SVGID_87_);}
	.st85{opacity:0.95;fill:url(#SVGID_88_);}
	.st86{opacity:0.95;fill:url(#SVGID_89_);}
	.st87{opacity:0.95;fill:url(#SVGID_90_);}
	.st88{opacity:0.95;fill:url(#SVGID_91_);}
	.st89{opacity:0.95;fill:url(#SVGID_92_);}
	.st90{opacity:0.95;fill:url(#SVGID_93_);}
	.st91{opacity:0.95;fill:url(#SVGID_94_);}
	.st92{opacity:0.95;fill:url(#SVGID_95_);}
</style>
<g id="Capa_1">
	<rect x="-2.152" y="5.45" class="st0" width="2554.303" height="1284.141"/>
	
		<linearGradient id="Trazado_58715_1_" gradientUnits="userSpaceOnUse" x1="1063.1592" y1="626.7386" x2="330.2408" y2="1537.9349" gradientTransform="matrix(1 0 0 1 0 636)">
		<stop  offset="0" style="stop-color:#FFFFFF"/>
		<stop  offset="0.098" style="stop-color:#FFFFFF;stop-opacity:0.824"/>
		<stop  offset="0.232" style="stop-color:#FFFFFF;stop-opacity:0.608"/>
		<stop  offset="0.367" style="stop-color:#FFFFFF;stop-opacity:0.424"/>
		<stop  offset="0.5" style="stop-color:#FFFFFF;stop-opacity:0.271"/>
		<stop  offset="0.631" style="stop-color:#FFFFFF;stop-opacity:0.153"/>
		<stop  offset="0.76" style="stop-color:#FFFFFF;stop-opacity:0.067"/>
		<stop  offset="0.884" style="stop-color:#FFFFFF;stop-opacity:0.016"/>
	</linearGradient>
	<path id="Trazado_58715_2_" class="st1" d="M387.556,1812.332l614.005-182.667l74.398-425.849L387.556,1812.332z"/>
	<g class="st2">
		<g>
			<g class="st3">
				<g>
					<polygon class="st4" points="0,476.403 25.998,447.529 57.024,453.559 31.026,482.433 					"/>
					<g class="st3">
						<g>
							<g>
								<defs>
									<polygon id="SVGID_1_" points="0,476.403 25.998,447.529 57.024,453.559 31.026,482.433 									"/>
								</defs>
								<clipPath id="SVGID_2_">
									<use xlink:href="#SVGID_1_"  style="overflow:visible;"/>
								</clipPath>
								<g class="st5">
									<g>
										<g>
											<g>
												<defs>
													<polyline id="SVGID_3_" points="25.998,447.529 0,476.403 31.026,482.433 57.024,453.559 25.998,447.529 													
														"/>
												</defs>
												<clipPath id="SVGID_4_">
													<use xlink:href="#SVGID_3_"  style="overflow:visible;"/>
												</clipPath>
											</g>
										</g>
									</g>
								</g>
							</g>
						</g>
					</g>
				</g>
				<g>
					<polygon class="st6" points="18.519,511.442 0,476.403 31.026,482.433 49.545,517.472 					"/>
				</g>
				<g>
					<polygon class="st7" points="49.545,517.472 31.026,482.433 57.024,453.559 75.543,488.598 					"/>
				</g>
			</g>
		</g>
		<g class="st8">
			<g>
				<g class="st3">
					<g>
						<linearGradient id="SVGID_5_" gradientUnits="userSpaceOnUse" x1="92.6756" y1="826.7692" x2="164.2681" y2="826.7692">
							<stop  offset="2.355528e-04" style="stop-color:#BFBFBF"/>
							<stop  offset="0.9986" style="stop-color:#000000"/>
						</linearGradient>
						<polygon class="st9" points="92.676,875.596 106.643,811.959 164.268,777.943 150.301,841.58 						"/>
						<g class="st3">
							<g>
								<g>
									<defs>
										<polygon id="SVGID_6_" points="92.676,875.596 106.643,811.959 164.268,777.943 150.301,841.58 										"/>
									</defs>
									<clipPath id="SVGID_7_">
										<use xlink:href="#SVGID_6_"  style="overflow:visible;"/>
									</clipPath>
									<g class="st10">
										<g>
											<g>
												<g>
													<defs>
														<polyline id="SVGID_8_" points="150.301,841.58 92.676,875.596 106.643,811.959 106.643,811.959 164.268,777.943 
															150.301,841.58 														"/>
													</defs>
													
														<linearGradient id="SVGID_9_" gradientUnits="userSpaceOnUse" x1="92.6756" y1="826.7692" x2="164.2681" y2="826.7692">
														<stop  offset="0" style="stop-color:#8A8A8A"/>
														<stop  offset="0.9986" style="stop-color:#000000"/>
													</linearGradient>
													<use xlink:href="#SVGID_8_"  style="overflow:visible;fill:url(#SVGID_9_);"/>
													<clipPath id="SVGID_10_">
														<use xlink:href="#SVGID_8_"  style="overflow:visible;"/>
													</clipPath>
												</g>
											</g>
										</g>
									</g>
								</g>
							</g>
						</g>
					</g>
					<g>
						<g>
							
								<linearGradient id="SVGID_11_" gradientUnits="userSpaceOnUse" x1="38.0595" y1="838.1952" x2="118.325" y2="838.1952" gradientTransform="matrix(1 0 0 1 -11.682 -19.1584)">
								<stop  offset="0.0018" style="stop-color:#9C9C9C"/>
								<stop  offset="0.9986" style="stop-color:#000000"/>
							</linearGradient>
							<polygon class="st11" points="92.676,875.596 26.378,826.115 40.345,762.478 106.643,811.959 							"/>
						</g>
					</g>
					<g>
						<g>
							
								<linearGradient id="SVGID_12_" gradientUnits="userSpaceOnUse" x1="52.0269" y1="789.3687" x2="175.9501" y2="789.3687" gradientTransform="matrix(1 0 0 1 -11.682 -19.1584)">
								<stop  offset="3.336997e-04" style="stop-color:#A3A3A3"/>
								<stop  offset="0.9986" style="stop-color:#000000"/>
							</linearGradient>
							<polygon class="st12" points="106.643,811.959 40.345,762.478 97.97,728.462 164.268,777.943 							"/>
						</g>
					</g>
				</g>
			</g>
		</g>
		<g>
			<g class="st3">
				<g>
					<polygon class="st13" points="260.226,1164.308 277.379,1119.287 321.556,1123.11 304.4,1168.124 					"/>
					<g class="st3">
						<g>
							<g>
								<defs>
									<polygon id="SVGID_13_" points="260.226,1164.308 277.379,1119.287 321.556,1123.11 304.4,1168.124 									"/>
								</defs>
								<clipPath id="SVGID_14_">
									<use xlink:href="#SVGID_13_"  style="overflow:visible;"/>
								</clipPath>
								<g class="st14">
									<g>
										<g>
											<g>
												<defs>
													<polyline id="SVGID_15_" points="304.4,1168.124 260.226,1164.308 277.379,1119.287 321.556,1123.11 304.4,1168.124 
																											"/>
												</defs>
												<clipPath id="SVGID_16_">
													<use xlink:href="#SVGID_15_"  style="overflow:visible;"/>
												</clipPath>
											</g>
										</g>
									</g>
								</g>
							</g>
						</g>
					</g>
				</g>
				<g>
					<polygon class="st15" points="260.226,1164.308 235.986,1135.626 253.141,1090.605 277.379,1119.287 					"/>
				</g>
				<g>
					<polygon class="st16" points="277.379,1119.287 253.141,1090.605 297.317,1094.429 321.556,1123.11 					"/>
				</g>
			</g>
		</g>
		<g>
			<g class="st3">
				<g>
					
						<linearGradient id="SVGID_17_" gradientUnits="userSpaceOnUse" x1="515.2421" y1="660.3865" x2="556.9859" y2="660.3865" gradientTransform="matrix(1 0 0 1 0 636)">
						<stop  offset="0.0047" style="stop-color:#363636"/>
						<stop  offset="0.9944" style="stop-color:#292929"/>
					</linearGradient>
					<polygon class="st17" points="515.242,1292.938 538.271,1268.465 556.986,1299.839 533.947,1324.308 					"/>
				</g>
				<g>
					
						<linearGradient id="SVGID_18_" gradientUnits="userSpaceOnUse" x1="486.79" y1="645.1678" x2="538.2706" y2="645.1678" gradientTransform="matrix(1 0 0 1 0 636)">
						<stop  offset="0.0076" style="stop-color:#292929"/>
						<stop  offset="0.9943" style="stop-color:#0F0F0F"/>
					</linearGradient>
					<polygon class="st18" points="515.242,1292.938 486.79,1293.87 509.817,1269.399 538.271,1268.465 					"/>
				</g>
				<g>
					
						<linearGradient id="SVGID_19_" gradientUnits="userSpaceOnUse" x1="486.79" y1="673.0897" x2="533.9472" y2="673.0897" gradientTransform="matrix(1 0 0 1 0 636)">
						<stop  offset="0.0047" style="stop-color:#363636"/>
						<stop  offset="0.9944" style="stop-color:#292929"/>
					</linearGradient>
					<polygon class="st19" points="533.947,1324.308 505.495,1325.241 486.79,1293.87 515.242,1292.938 					"/>
				</g>
			</g>
		</g>
		<g>
			<g class="st3">
				<g>
					
						<linearGradient id="SVGID_20_" gradientUnits="userSpaceOnUse" x1="731.7582" y1="850.1822" x2="780.7704" y2="850.1822" gradientTransform="matrix(1 0 0 1 0 636)">
						<stop  offset="0.0076" style="stop-color:#292929"/>
						<stop  offset="0.9943" style="stop-color:#0F0F0F"/>
					</linearGradient>
					<polygon class="st20" points="747.667,1466.854 780.77,1472.623 764.866,1505.511 731.758,1499.731 					"/>
				</g>
				<g>
					
						<linearGradient id="SVGID_21_" gradientUnits="userSpaceOnUse" x1="731.2353" y1="822.1149" x2="780.7704" y2="822.1149" gradientTransform="matrix(1 0 0 1 0 636)">
						<stop  offset="0.0076" style="stop-color:#292929"/>
						<stop  offset="0.9943" style="stop-color:#0F0F0F"/>
					</linearGradient>
					<polygon class="st21" points="747.667,1466.854 731.235,1443.606 764.34,1449.375 780.77,1472.623 					"/>
				</g>
				<g>
					
						<linearGradient id="SVGID_22_" gradientUnits="userSpaceOnUse" x1="715.3279" y1="835.6686" x2="747.6666" y2="835.6686" gradientTransform="matrix(1 0 0 1 0 636)">
						<stop  offset="0.0076" style="stop-color:#292929"/>
						<stop  offset="0.9943" style="stop-color:#0F0F0F"/>
					</linearGradient>
					<polygon class="st22" points="731.758,1499.731 715.328,1476.483 731.235,1443.606 747.667,1466.854 					"/>
				</g>
			</g>
		</g>
		<g>
			<g class="st3">
				<g>
					<linearGradient id="SVGID_23_" gradientUnits="userSpaceOnUse" x1="426.5425" y1="888.9812" x2="407.7168" y2="841.4216">
						<stop  offset="0" style="stop-color:#BFBFBF"/>
						<stop  offset="1" style="stop-color:#4D4D4D"/>
					</linearGradient>
					<polygon class="st23" points="394.256,850.868 404.69,813.383 423.366,837.502 412.932,874.987 					"/>
					<g class="st3">
						<g>
							<g>
								<defs>
									<polygon id="SVGID_24_" points="394.256,850.868 404.69,813.383 423.366,837.502 412.932,874.987 									"/>
								</defs>
								<clipPath id="SVGID_25_">
									<use xlink:href="#SVGID_24_"  style="overflow:visible;"/>
								</clipPath>
								<g class="st24">
									<g>
										<g>
											<g>
												<defs>
													<polyline id="SVGID_26_" points="404.69,813.383 404.69,813.383 394.256,850.868 412.932,874.987 423.366,837.502 
														404.69,813.383 													"/>
												</defs>
												<clipPath id="SVGID_27_">
													<use xlink:href="#SVGID_26_"  style="overflow:visible;"/>
												</clipPath>
											</g>
										</g>
									</g>
								</g>
							</g>
						</g>
					</g>
				</g>
				<g>
					<linearGradient id="SVGID_28_" gradientUnits="userSpaceOnUse" x1="377.8065" y1="909.7122" x2="382.7606" y2="862.1526">
						<stop  offset="2.355528e-04" style="stop-color:#BFBFBF"/>
						<stop  offset="1" style="stop-color:#3B3B3B"/>
					</linearGradient>
					<polygon class="st25" points="352.259,852.496 394.256,850.868 412.932,874.987 370.935,876.614 					"/>
				</g>
				<g>
					<linearGradient id="SVGID_29_" gradientUnits="userSpaceOnUse" x1="347.7802" y1="786.046" x2="419.1194" y2="895.0366">
						<stop  offset="2.355528e-04" style="stop-color:#BFBFBF"/>
						<stop  offset="0.9986" style="stop-color:#000000"/>
					</linearGradient>
					<polygon class="st26" points="362.693,815.011 404.69,813.383 394.256,850.868 352.259,852.496 					"/>
				</g>
			</g>
		</g>
		<circle class="st27" cx="60.439" cy="423.119" r="2.895"/>
		<circle class="st27" cx="99.747" cy="379.368" r="2.895"/>
		<circle class="st27" cx="80.844" cy="449.818" r="2.895"/>
		<circle class="st27" cx="79.166" cy="597.323" r="5.101"/>
		<circle class="st27" cx="56.372" cy="687.205" r="5.101"/>
		<circle class="st27" cx="106.298" cy="707.927" r="5.101"/>
		<g>
			<g class="st3">
				<g>
					<polygon class="st28" points="1954.102,1441.816 1978.272,1385.317 2018.928,1374.322 1994.759,1430.819 					"/>
					<g class="st3">
						<g>
							<g>
								<defs>
									<polygon id="SVGID_30_" points="1954.102,1441.816 1978.272,1385.317 2018.928,1374.322 1994.759,1430.819 									"/>
								</defs>
								<clipPath id="SVGID_31_">
									<use xlink:href="#SVGID_30_"  style="overflow:visible;"/>
								</clipPath>
								<g class="st29">
									<g>
										<g>
											<g>
												<defs>
													<polyline id="SVGID_32_" points="1994.759,1430.819 1954.102,1441.816 1978.272,1385.317 1978.272,1385.317 
														2018.928,1374.322 1994.759,1430.819 													"/>
												</defs>
												<clipPath id="SVGID_33_">
													<use xlink:href="#SVGID_32_"  style="overflow:visible;"/>
												</clipPath>
											</g>
										</g>
									</g>
								</g>
							</g>
						</g>
					</g>
				</g>
				<g>
					<polygon class="st30" points="1954.102,1441.816 1901.212,1402.341 1925.381,1345.844 1978.272,1385.317 					"/>
				</g>
				<g>
					<polygon class="st31" points="1978.272,1385.317 1925.381,1345.844 1966.038,1334.847 2018.928,1374.322 					"/>
				</g>
			</g>
		</g>
		<g>
			<g class="st3">
				<g>
					<polygon class="st32" points="2279.097,1194.988 2308.584,1156.436 2346.438,1163.203 2316.951,1201.747 					"/>
					<g class="st3">
						<g>
							<g>
								<defs>
									<polygon id="SVGID_34_" points="2279.097,1194.988 2308.584,1156.436 2346.438,1163.203 2316.951,1201.747 									"/>
								</defs>
								<clipPath id="SVGID_35_">
									<use xlink:href="#SVGID_34_"  style="overflow:visible;"/>
								</clipPath>
								<g class="st33">
									<g>
										<g>
											<g>
												<defs>
													<polyline id="SVGID_36_" points="2316.951,1201.747 2279.097,1194.988 2308.584,1156.436 2346.438,1163.203 
														2316.951,1201.747 													"/>
												</defs>
												
													<linearGradient id="SVGID_37_" gradientUnits="userSpaceOnUse" x1="2279.0972" y1="1179.0917" x2="2346.4375" y2="1179.0917">
													<stop  offset="0.0011" style="stop-color:#737373"/>
													<stop  offset="1" style="stop-color:#000000"/>
												</linearGradient>
												<use xlink:href="#SVGID_36_"  style="overflow:visible;fill:url(#SVGID_37_);"/>
												<clipPath id="SVGID_38_">
													<use xlink:href="#SVGID_36_"  style="overflow:visible;"/>
												</clipPath>
											</g>
										</g>
									</g>
								</g>
							</g>
						</g>
					</g>
				</g>
				<g>
					<linearGradient id="SVGID_39_" gradientUnits="userSpaceOnUse" x1="2253.3401" y1="1156.024" x2="2308.584" y2="1156.024">
						<stop  offset="0.002" style="stop-color:#212121"/>
						<stop  offset="0.9986" style="stop-color:#000000"/>
					</linearGradient>
					<polygon class="st34" points="2279.097,1194.988 2253.34,1155.611 2282.826,1117.06 2308.584,1156.436 					"/>
				</g>
				<g>
					<linearGradient id="SVGID_40_" gradientUnits="userSpaceOnUse" x1="2314.6321" y1="1059.3877" x2="2314.6321" y2="1059.0991">
						<stop  offset="1.766646e-04" style="stop-color:#383838"/>
						<stop  offset="1" style="stop-color:#383838"/>
					</linearGradient>
					<polygon class="st35" points="2308.584,1156.436 2282.826,1117.06 2320.68,1123.826 2346.438,1163.203 					"/>
				</g>
			</g>
		</g>
		
			<linearGradient id="SVGID_41_" gradientUnits="userSpaceOnUse" x1="1991.2308" y1="676.3854" x2="1998.4448" y2="676.3854" gradientTransform="matrix(1 0 0 1 0 636)">
			<stop  offset="0.0076" style="stop-color:#292929"/>
			<stop  offset="0.9943" style="stop-color:#0F0F0F"/>
		</linearGradient>
		<circle class="st36" cx="1994.838" cy="1312.385" r="3.607"/>
		
			<linearGradient id="SVGID_42_" gradientUnits="userSpaceOnUse" x1="1969.9032" y1="651.1794" x2="1977.1173" y2="651.1794" gradientTransform="matrix(1 0 0 1 0 636)">
			<stop  offset="0.0076" style="stop-color:#292929"/>
			<stop  offset="0.9943" style="stop-color:#0F0F0F"/>
		</linearGradient>
		<circle class="st37" cx="1973.51" cy="1287.179" r="3.607"/>
		
			<linearGradient id="SVGID_43_" gradientUnits="userSpaceOnUse" x1="2008.5709" y1="606.752" x2="2015.7849" y2="606.752" gradientTransform="matrix(1 0 0 1 0 636)">
			<stop  offset="0.0076" style="stop-color:#292929"/>
			<stop  offset="0.9943" style="stop-color:#0F0F0F"/>
		</linearGradient>
		<circle class="st38" cx="2012.178" cy="1242.752" r="3.607"/>
		<g>
			<g class="st3">
				<g>
					<polygon class="st39" points="2739.144,1044.213 2777.642,988.122 2832.913,997.974 2794.415,1054.066 					"/>
					<g class="st3">
						<g>
							<g>
								<defs>
									<polygon id="SVGID_44_" points="2739.144,1044.213 2777.642,988.122 2832.913,997.974 2794.415,1054.066 									"/>
								</defs>
								<clipPath id="SVGID_45_">
									<use xlink:href="#SVGID_44_"  style="overflow:visible;"/>
								</clipPath>
								<g class="st40">
									<g>
										<g>
											<g>
												<defs>
													<polyline id="SVGID_46_" points="2794.415,1054.066 2739.144,1044.213 2777.642,988.122 2777.642,988.122 
														2832.913,997.974 2794.415,1054.066 													"/>
												</defs>
												<clipPath id="SVGID_47_">
													<use xlink:href="#SVGID_46_"  style="overflow:visible;"/>
												</clipPath>
											</g>
										</g>
									</g>
								</g>
							</g>
						</g>
					</g>
				</g>
				<g>
					<polygon class="st41" points="2739.144,1044.213 2703.671,991.791 2742.169,935.699 2777.642,988.122 					"/>
				</g>
				<g>
					<polygon class="st42" points="2777.642,988.122 2742.169,935.699 2797.44,945.552 2832.913,997.974 					"/>
				</g>
			</g>
		</g>
		
			<linearGradient id="SVGID_48_" gradientUnits="userSpaceOnUse" x1="2741.3682" y1="268.8028" x2="2751.0022" y2="268.8028" gradientTransform="matrix(1 0 0 1 0 636)">
			<stop  offset="0.0076" style="stop-color:#292929"/>
			<stop  offset="0.9943" style="stop-color:#0F0F0F"/>
		</linearGradient>
		<circle class="st43" cx="2746.185" cy="904.803" r="4.817"/>
		
			<linearGradient id="SVGID_49_" gradientUnits="userSpaceOnUse" x1="2771.5269" y1="233.2815" x2="2781.1609" y2="233.2815" gradientTransform="matrix(1 0 0 1 0 636)">
			<stop  offset="0.0076" style="stop-color:#292929"/>
			<stop  offset="0.9943" style="stop-color:#0F0F0F"/>
		</linearGradient>
		<circle class="st44" cx="2776.344" cy="869.281" r="4.817"/>
		
			<linearGradient id="SVGID_50_" gradientUnits="userSpaceOnUse" x1="2766.7087" y1="159.594" x2="2776.3428" y2="159.594" gradientTransform="matrix(1 0 0 1 0 636)">
			<stop  offset="0.0076" style="stop-color:#292929"/>
			<stop  offset="0.9943" style="stop-color:#0F0F0F"/>
		</linearGradient>
		<circle class="st45" cx="2771.526" cy="795.594" r="4.817"/>
		
			<linearGradient id="SVGID_51_" gradientUnits="userSpaceOnUse" x1="2252.5884" y1="487.1252" x2="2259.8025" y2="487.1252" gradientTransform="matrix(1 0 0 1 0 636)">
			<stop  offset="0.0076" style="stop-color:#292929"/>
			<stop  offset="0.9943" style="stop-color:#0F0F0F"/>
		</linearGradient>
		<circle class="st46" cx="2256.196" cy="1123.125" r="3.607"/>
		
			<linearGradient id="SVGID_52_" gradientUnits="userSpaceOnUse" x1="2277.8953" y1="455.7508" x2="2285.1094" y2="455.7508" gradientTransform="matrix(1 0 0 1 0 636)">
			<stop  offset="0.0076" style="stop-color:#292929"/>
			<stop  offset="0.9943" style="stop-color:#0F0F0F"/>
		</linearGradient>
		<circle class="st47" cx="2281.502" cy="1091.751" r="3.607"/>
		
			<linearGradient id="SVGID_53_" gradientUnits="userSpaceOnUse" x1="2231.5054" y1="404.6709" x2="2238.7195" y2="404.6709" gradientTransform="matrix(1 0 0 1 0 636)">
			<stop  offset="0.0076" style="stop-color:#292929"/>
			<stop  offset="0.9943" style="stop-color:#0F0F0F"/>
		</linearGradient>
		<circle class="st48" cx="2235.112" cy="1040.671" r="3.607"/>
		<circle class="st49" cx="379.749" cy="793.547" r="3.607"/>
		<circle class="st27" cx="360.844" cy="1029.251" r="3.607"/>
		<circle class="st27" cx="340.925" cy="1113.564" r="3.607"/>
		<circle class="st27" cx="315.755" cy="1081.18" r="3.607"/>
		<ellipse class="st27" cx="558.549" cy="1179.106" rx="2.932" ry="3.056"/>
		<ellipse class="st27" cx="542.353" cy="1250.543" rx="2.932" ry="3.056"/>
		<ellipse class="st27" cx="521.888" cy="1223.104" rx="2.932" ry="3.056"/>
		<ellipse class="st50" cx="747.667" cy="1342.892" rx="2.932" ry="3.056"/>
		<ellipse class="st50" cx="725.239" cy="1427.955" rx="2.932" ry="3.056"/>
		<ellipse class="st50" cx="750.599" cy="1400.516" rx="2.932" ry="3.056"/>
		<g>
			<g class="st3">
				<g>
					
						<linearGradient id="SVGID_54_" gradientUnits="userSpaceOnUse" x1="1197.4528" y1="694.2904" x2="1241.3198" y2="694.2904" gradientTransform="matrix(1 0 0 1 0 636)">
						<stop  offset="0.0047" style="stop-color:#363636"/>
						<stop  offset="0.9944" style="stop-color:#292929"/>
					</linearGradient>
					<polygon class="st51" points="1207.718,1312.646 1241.32,1312.873 1231.06,1347.935 1197.453,1347.697 					"/>
				</g>
				<g>
					
						<linearGradient id="SVGID_55_" gradientUnits="userSpaceOnUse" x1="1187.6752" y1="666.651" x2="1241.3198" y2="666.651" gradientTransform="matrix(1 0 0 1 0 636)">
						<stop  offset="0.0076" style="stop-color:#292929"/>
						<stop  offset="0.9943" style="stop-color:#0F0F0F"/>
					</linearGradient>
					<polygon class="st52" points="1207.718,1312.646 1187.675,1292.429 1221.278,1292.656 1241.32,1312.873 					"/>
				</g>
				<g>
					
						<linearGradient id="SVGID_56_" gradientUnits="userSpaceOnUse" x1="1177.411" y1="684.063" x2="1207.718" y2="684.063" gradientTransform="matrix(1 0 0 1 0 636)">
						<stop  offset="0.0047" style="stop-color:#363636"/>
						<stop  offset="0.9944" style="stop-color:#292929"/>
					</linearGradient>
					<polygon class="st53" points="1197.453,1347.697 1177.411,1327.48 1187.675,1292.429 1207.718,1312.646 					"/>
				</g>
			</g>
		</g>
		<g>
			<g class="st3">
				<g>
					
						<linearGradient id="SVGID_57_" gradientUnits="userSpaceOnUse" x1="1562.8287" y1="640.6939" x2="1604.7616" y2="640.6939" gradientTransform="matrix(1 0 0 1 0 636)">
						<stop  offset="0" style="stop-color:#888888"/>
						<stop  offset="1" style="stop-color:#717171"/>
					</linearGradient>
					<polygon class="st54" points="1571.195,1259.706 1604.762,1258.129 1596.401,1293.689 1562.829,1295.259 					"/>
				</g>
				<g>
					
						<linearGradient id="SVGID_58_" gradientUnits="userSpaceOnUse" x1="1550.0961" y1="613.3618" x2="1604.7616" y2="613.3618" gradientTransform="matrix(1 0 0 1 0 636)">
						<stop  offset="0.0047" style="stop-color:#363636"/>
						<stop  offset="0.9944" style="stop-color:#292929"/>
					</linearGradient>
					<polygon class="st55" points="1571.195,1259.706 1550.096,1240.595 1583.662,1239.017 1604.762,1258.129 					"/>
				</g>
				<g>
					
						<linearGradient id="SVGID_59_" gradientUnits="userSpaceOnUse" x1="1541.7299" y1="631.927" x2="1571.1949" y2="631.927" gradientTransform="matrix(1 0 0 1 0 636)">
						<stop  offset="0" style="stop-color:#888888"/>
						<stop  offset="1" style="stop-color:#717171"/>
					</linearGradient>
					<polygon class="st56" points="1562.829,1295.259 1541.73,1276.148 1550.096,1240.595 1571.195,1259.706 					"/>
				</g>
			</g>
		</g>
		<g>
			<g class="st3">
				<g>
					
						<linearGradient id="SVGID_60_" gradientUnits="userSpaceOnUse" x1="1648.4702" y1="582.0072" x2="1717.9066" y2="582.0072" gradientTransform="matrix(1 0 0 1 0 636)">
						<stop  offset="0.0047" style="stop-color:#363636"/>
						<stop  offset="0.9944" style="stop-color:#292929"/>
					</linearGradient>
					<polygon class="st57" points="1648.47,1211.75 1687.46,1171.504 1717.907,1224.27 1678.898,1264.511 					"/>
				</g>
				<g>
					
						<linearGradient id="SVGID_61_" gradientUnits="userSpaceOnUse" x1="1601.0052" y1="556.0603" x2="1687.4603" y2="556.0603" gradientTransform="matrix(1 0 0 1 0 636)">
						<stop  offset="0.0076" style="stop-color:#292929"/>
						<stop  offset="0.9943" style="stop-color:#0F0F0F"/>
					</linearGradient>
					<polygon class="st58" points="1648.47,1211.75 1601.005,1212.617 1639.995,1172.371 1687.46,1171.504 					"/>
				</g>
				<g>
					
						<linearGradient id="SVGID_62_" gradientUnits="userSpaceOnUse" x1="1601.0052" y1="602.5639" x2="1678.8984" y2="602.5639" gradientTransform="matrix(1 0 0 1 0 636)">
						<stop  offset="0" style="stop-color:#888888"/>
						<stop  offset="1" style="stop-color:#717171"/>
					</linearGradient>
					<polygon class="st59" points="1678.898,1264.511 1631.433,1265.378 1601.005,1212.617 1648.47,1211.75 					"/>
				</g>
			</g>
		</g>
		<g>
			<g class="st3">
				<g>
					
						<linearGradient id="SVGID_63_" gradientUnits="userSpaceOnUse" x1="1622.8022" y1="695.2903" x2="1670.4927" y2="695.2903" gradientTransform="matrix(1 0 0 1 0 636)">
						<stop  offset="0" style="stop-color:#888888"/>
						<stop  offset="1" style="stop-color:#717171"/>
					</linearGradient>
					<polygon class="st60" points="1637.155,1312.385 1670.493,1316.599 1656.144,1350.195 1622.802,1345.97 					"/>
				</g>
				<g>
					
						<linearGradient id="SVGID_64_" gradientUnits="userSpaceOnUse" x1="1619.6549" y1="667.2655" x2="1670.4927" y2="667.2655" gradientTransform="matrix(1 0 0 1 0 636)">
						<stop  offset="0.0047" style="stop-color:#363636"/>
						<stop  offset="0.9944" style="stop-color:#292929"/>
					</linearGradient>
					<polygon class="st61" points="1637.155,1312.385 1619.655,1289.932 1652.993,1294.146 1670.493,1316.599 					"/>
				</g>
				<g>
					
						<linearGradient id="SVGID_65_" gradientUnits="userSpaceOnUse" x1="1605.3026" y1="681.9511" x2="1637.1545" y2="681.9511" gradientTransform="matrix(1 0 0 1 0 636)">
						<stop  offset="0" style="stop-color:#888888"/>
						<stop  offset="1" style="stop-color:#717171"/>
					</linearGradient>
					<polygon class="st62" points="1622.802,1345.97 1605.303,1323.517 1619.655,1289.932 1637.155,1312.385 					"/>
				</g>
			</g>
		</g>
		<path class="st50" d="M1173.994,1196.106c0.136,1.682-1.063,3.152-2.677,3.282c-1.615,0.13-3.033-1.127-3.169-2.81
			c-0.136-1.683,1.063-3.152,2.677-3.282C1172.439,1193.166,1173.858,1194.423,1173.994,1196.106z"/>
		<path class="st50" d="M1193.038,1266.907c0.136,1.682-1.063,3.152-2.677,3.282c-1.615,0.13-3.033-1.127-3.169-2.81
			c-0.136-1.683,1.063-3.152,2.677-3.282S1192.901,1265.225,1193.038,1266.907z"/>
		<path class="st50" d="M1211.288,1240.487c0.136,1.682-1.063,3.152-2.677,3.282c-1.615,0.13-3.033-1.127-3.169-2.81
			c-0.136-1.683,1.063-3.152,2.677-3.282C1209.733,1237.547,1211.152,1238.804,1211.288,1240.487z"/>
		<g>
			<g class="st3">
				<g>
					
						<linearGradient id="SVGID_66_" gradientUnits="userSpaceOnUse" x1="2119.303" y1="87.1056" x2="2176.0317" y2="87.1056" gradientTransform="matrix(1 0 0 1 0 636)">
						<stop  offset="0.0047" style="stop-color:#363636"/>
						<stop  offset="0.9944" style="stop-color:#292929"/>
					</linearGradient>
					<polygon class="st63" points="2119.303,722.119 2146.948,684.896 2176.032,724.093 2148.372,761.315 					"/>
				</g>
				<g>
					
						<linearGradient id="SVGID_67_" gradientUnits="userSpaceOnUse" x1="2081.3643" y1="70.6533" x2="2146.9482" y2="70.6533" gradientTransform="matrix(1 0 0 1 0 636)">
						<stop  offset="0.0076" style="stop-color:#292929"/>
						<stop  offset="0.9943" style="stop-color:#0F0F0F"/>
					</linearGradient>
					<polygon class="st64" points="2119.303,722.119 2081.364,728.411 2109.01,691.187 2146.948,684.896 					"/>
				</g>
				<g>
					
						<linearGradient id="SVGID_68_" gradientUnits="userSpaceOnUse" x1="2081.3643" y1="108.8632" x2="2148.3718" y2="108.8632" gradientTransform="matrix(1 0 0 1 0 636)">
						<stop  offset="0" style="stop-color:#888888"/>
						<stop  offset="1" style="stop-color:#717171"/>
					</linearGradient>
					<polygon class="st65" points="2148.372,761.315 2110.433,767.607 2081.364,728.411 2119.303,722.119 					"/>
				</g>
			</g>
		</g>
		<g>
			<g class="st3">
				<g>
					
						<linearGradient id="SVGID_69_" gradientUnits="userSpaceOnUse" x1="2511.9722" y1="10.0675" x2="2559.4646" y2="10.0675" gradientTransform="matrix(1 0 0 1 0 636)">
						<stop  offset="0.0076" style="stop-color:#292929"/>
						<stop  offset="0.9943" style="stop-color:#0F0F0F"/>
					</linearGradient>
					<polygon class="st66" points="2517.76,627.452 2559.465,620.577 2553.684,664.693 2511.972,671.558 					"/>
				</g>
				<g>
					
						<linearGradient id="SVGID_70_" gradientUnits="userSpaceOnUse" x1="2488.9119" y1="-21.9447" x2="2559.4646" y2="-21.9447" gradientTransform="matrix(1 0 0 1 0 636)">
						<stop  offset="0.0076" style="stop-color:#292929"/>
						<stop  offset="0.9943" style="stop-color:#0F0F0F"/>
					</linearGradient>
					<polygon class="st67" points="2517.76,627.452 2488.912,607.535 2530.616,600.659 2559.465,620.577 					"/>
				</g>
				<g>
					
						<linearGradient id="SVGID_71_" gradientUnits="userSpaceOnUse" x1="2483.124" y1="3.5461" x2="2517.76" y2="3.5461" gradientTransform="matrix(1 0 0 1 0 636)">
						<stop  offset="0.0076" style="stop-color:#292929"/>
						<stop  offset="0.9943" style="stop-color:#0F0F0F"/>
					</linearGradient>
					<polygon class="st68" points="2511.972,671.558 2483.124,651.639 2488.912,607.535 2517.76,627.452 					"/>
				</g>
			</g>
		</g>
		<g>
			<g class="st3">
				<g>
					
						<linearGradient id="SVGID_72_" gradientUnits="userSpaceOnUse" x1="2424.8674" y1="-442.3302" x2="2510.6277" y2="-442.3302" gradientTransform="matrix(1 0 0 1 0 636)">
						<stop  offset="0.0047" style="stop-color:#363636"/>
						<stop  offset="0.9944" style="stop-color:#292929"/>
					</linearGradient>
					<polygon class="st69" points="2424.867,184.952 2476.38,135.385 2510.628,202.393 2459.094,251.954 					"/>
				</g>
				<g>
					<linearGradient id="SVGID_73_" gradientUnits="userSpaceOnUse" x1="2365.574" y1="160.1241" x2="2476.3796" y2="160.1241">
						<stop  offset="0.0028" style="stop-color:#0B0802"/>
						<stop  offset="1" style="stop-color:#4D4D50"/>
					</linearGradient>
					<polygon class="st70" points="2424.867,184.952 2365.574,184.864 2417.087,135.296 2476.38,135.385 					"/>
				</g>
				<g>
					
						<linearGradient id="SVGID_74_" gradientUnits="userSpaceOnUse" x1="2365.574" y1="-417.591" x2="2459.0938" y2="-417.591" gradientTransform="matrix(1 0 0 1 0 636)">
						<stop  offset="0" style="stop-color:#18130D"/>
						<stop  offset="1" style="stop-color:#888888"/>
					</linearGradient>
					<polygon class="st71" points="2459.094,251.954 2399.802,251.865 2365.574,184.864 2424.867,184.952 					"/>
				</g>
			</g>
		</g>
		<path class="st72" d="M2125.16,581.3c0.136,1.682-1.063,3.152-2.677,3.282c-1.614,0.13-3.033-1.127-3.169-2.81
			c-0.136-1.682,1.063-3.152,2.677-3.282C2123.605,578.359,2125.024,579.618,2125.16,581.3z"/>
		<path class="st72" d="M2122.941,635.878c0.136,1.683-1.063,3.152-2.677,3.282c-1.615,0.13-3.033-1.127-3.17-2.81
			c-0.136-1.682,1.063-3.152,2.677-3.282C2121.385,632.938,2122.805,634.195,2122.941,635.878z"/>
		<path class="st72" d="M2147.657,662.349c0.136,1.683-1.063,3.152-2.677,3.282c-1.614,0.13-3.033-1.127-3.169-2.81
			c-0.136-1.683,1.062-3.152,2.677-3.282C2146.102,659.409,2147.521,660.668,2147.657,662.349z"/>
		<path class="st73" d="M1536.821,1143.661c0.136,1.683-1.063,3.152-2.677,3.282c-1.615,0.13-3.033-1.127-3.169-2.81
			c-0.136-1.682,1.063-3.152,2.677-3.282C1535.266,1140.721,1536.685,1141.979,1536.821,1143.661z"/>
		<path class="st73" d="M1574.958,1187.563c0.136,1.683-1.063,3.152-2.677,3.282c-1.615,0.13-3.033-1.127-3.169-2.81
			c-0.136-1.683,1.063-3.152,2.677-3.282S1574.822,1185.881,1574.958,1187.563z"/>
		<path class="st73" d="M1556.114,1212.612c0.136,1.682-1.063,3.152-2.677,3.282c-1.615,0.13-3.033-1.127-3.169-2.81
			c-0.136-1.682,1.063-3.152,2.677-3.282C1554.559,1209.672,1555.978,1210.931,1556.114,1212.612z"/>
		<path class="st27" d="M1686.728,1124.144c0.136,1.682-1.063,3.152-2.677,3.282c-1.615,0.13-3.033-1.127-3.169-2.81
			c-0.136-1.682,1.063-3.152,2.677-3.282C1685.173,1121.203,1686.591,1122.462,1686.728,1124.144z"/>
		<path class="st27" d="M1709.924,1159.169c0.136,1.683-1.063,3.152-2.677,3.282c-1.615,0.13-3.033-1.127-3.169-2.81
			c-0.136-1.682,1.063-3.152,2.677-3.282C1708.369,1156.229,1709.788,1157.486,1709.924,1159.169z"/>
		<path class="st27" d="M1618.058,1268.23c0.136,1.682-1.063,3.152-2.677,3.282c-1.615,0.13-3.033-1.127-3.169-2.81
			c-0.136-1.683,1.063-3.152,2.677-3.282C1616.503,1265.289,1617.922,1266.547,1618.058,1268.23z"/>
		<path class="st27" d="M1740.074,1076.083c0.136,1.683-1.063,3.152-2.677,3.282c-1.614,0.13-3.033-1.127-3.169-2.81
			c-0.136-1.683,1.063-3.152,2.677-3.282C1738.519,1073.143,1739.938,1074.401,1740.074,1076.083z"/>
		<circle class="st49" cx="401.035" cy="772.241" r="3.607"/>
		<circle class="st49" cx="397.428" cy="728.251" r="3.607"/>
		<path class="st27" d="M1643.248,1245.136c0.136,1.682-1.063,3.152-2.677,3.282c-1.614,0.13-3.033-1.127-3.169-2.81
			c-0.136-1.683,1.063-3.152,2.677-3.282C1641.693,1242.195,1643.112,1243.453,1643.248,1245.136z"/>
		<path class="st27" d="M1640.078,1189.81c0.136,1.682-1.063,3.152-2.677,3.282c-1.615,0.13-3.033-1.127-3.169-2.81
			c-0.136-1.683,1.063-3.152,2.677-3.282C1638.523,1186.87,1639.942,1188.128,1640.078,1189.81z"/>
		<g>
			<g class="st3">
				<g>
					<linearGradient id="SVGID_75_" gradientUnits="userSpaceOnUse" x1="839.0429" y1="1037.7825" x2="940.1865" y2="1037.7825">
						<stop  offset="0" style="stop-color:#18130D"/>
						<stop  offset="1" style="stop-color:#888888"/>
					</linearGradient>
					<polygon class="st74" points="895.202,1000.2 940.186,1046.782 884.027,1075.365 839.043,1028.784 					"/>
					<g class="st3">
						<g>
							<g>
								<defs>
									<polygon id="SVGID_76_" points="895.202,1000.2 940.186,1046.782 884.027,1075.365 839.043,1028.784 									"/>
								</defs>
								<clipPath id="SVGID_77_">
									<use xlink:href="#SVGID_76_"  style="overflow:visible;"/>
								</clipPath>
								<g class="st75">
									<g>
										<g>
											<g>
												<defs>
													<polyline id="SVGID_78_" points="940.186,1046.782 895.202,1000.2 839.043,1028.784 884.027,1075.365 
														940.186,1046.782 													"/>
												</defs>
												<clipPath id="SVGID_79_">
													<use xlink:href="#SVGID_78_"  style="overflow:visible;"/>
												</clipPath>
											</g>
										</g>
									</g>
								</g>
							</g>
						</g>
					</g>
				</g>
				<g>
					<linearGradient id="SVGID_80_" gradientUnits="userSpaceOnUse" x1="839.0429" y1="991.7147" x2="904.9323" y2="991.7147">
						<stop  offset="0" style="stop-color:#18130D"/>
						<stop  offset="1" style="stop-color:#888888"/>
					</linearGradient>
					<polygon class="st76" points="904.932,954.646 895.202,1000.2 839.043,1028.784 848.774,983.228 					"/>
				</g>
				<g>
					<linearGradient id="SVGID_81_" gradientUnits="userSpaceOnUse" x1="895.2023" y1="1000.7141" x2="949.9165" y2="1000.7141">
						<stop  offset="0" style="stop-color:#5B5450"/>
						<stop  offset="1" style="stop-color:#888888"/>
					</linearGradient>
					<polygon class="st77" points="949.917,1001.227 940.186,1046.782 895.202,1000.2 904.932,954.646 					"/>
				</g>
			</g>
		</g>
		<circle class="st50" cx="904.168" cy="821.562" r="4.997"/>
		<circle class="st50" cx="896.673" cy="903.177" r="4.997"/>
		<circle class="st50" cx="952.471" cy="936.491" r="4.39"/>
		
			<linearGradient id="SVGID_82_" gradientUnits="userSpaceOnUse" x1="2453.9612" y1="-564.8619" x2="2464.2263" y2="-564.8619" gradientTransform="matrix(1 0 0 1 0 636)">
			<stop  offset="0.0076" style="stop-color:#292929"/>
			<stop  offset="0.9943" style="stop-color:#0F0F0F"/>
		</linearGradient>
		<circle class="st78" cx="2459.094" cy="71.138" r="5.133"/>
		
			<linearGradient id="SVGID_83_" gradientUnits="userSpaceOnUse" x1="2489.3389" y1="-521.9681" x2="2499.604" y2="-521.9681" gradientTransform="matrix(1 0 0 1 0 636)">
			<stop  offset="0.0076" style="stop-color:#292929"/>
			<stop  offset="0.9943" style="stop-color:#0F0F0F"/>
		</linearGradient>
		<circle class="st79" cx="2494.471" cy="114.032" r="5.133"/>
		
			<linearGradient id="SVGID_84_" gradientUnits="userSpaceOnUse" x1="2516.8799" y1="-634.3448" x2="2527.145" y2="-634.3448" gradientTransform="matrix(1 0 0 1 0 636)">
			<stop  offset="0.0076" style="stop-color:#292929"/>
			<stop  offset="0.9943" style="stop-color:#0F0F0F"/>
		</linearGradient>
		<circle class="st80" cx="2522.012" cy="1.655" r="5.133"/>
	</g>
</g>
<g id="CRISTALES">
	<g class="st81">
		
			<linearGradient id="SVGID_85_" gradientUnits="userSpaceOnUse" x1="756.6096" y1="-1336.7408" x2="752.1619" y2="-2003.9055" gradientTransform="matrix(-0.5386 0.8426 -0.8426 -0.5386 -649.5914 -1324.0833)">
			<stop  offset="0" style="stop-color:#FFFFFF"/>
			<stop  offset="1" style="stop-color:#FFFFFF;stop-opacity:0"/>
		</linearGradient>
		<polygon class="st82" points="-256.302,607.403 373.047,-554.287 462.271,1003.436 		"/>
		
			<linearGradient id="SVGID_86_" gradientUnits="userSpaceOnUse" x1="-76.4771" y1="927.7159" x2="596.1042" y2="445.2886" gradientTransform="matrix(0.9067 -0.4218 0.4218 0.9067 -234.9994 533.4003)">
			<stop  offset="0" style="stop-color:#FFFFFF"/>
			<stop  offset="1" style="stop-color:#FFFFFF;stop-opacity:0"/>
		</linearGradient>
		<polygon class="st83" points="646.024,570.795 -268.036,1079.386 569.456,1508.074 		"/>
		
			<linearGradient id="SVGID_87_" gradientUnits="userSpaceOnUse" x1="2165.5288" y1="356.6583" x2="1496.469" y2="-72.9485" gradientTransform="matrix(0.9067 -0.4218 0.4218 0.9067 -234.9994 533.4003)">
			<stop  offset="0" style="stop-color:#FFFFFF"/>
			<stop  offset="1" style="stop-color:#FFFFFF;stop-opacity:0"/>
		</linearGradient>
		<polygon class="st84" points="1393.831,-616.22 1502.34,385.449 638.229,57.332 		"/>
		
			<linearGradient id="SVGID_88_" gradientUnits="userSpaceOnUse" x1="1435.6045" y1="153.2898" x2="1086.989" y2="484.2984" gradientTransform="matrix(0.9067 -0.4218 0.4218 0.9067 -234.9994 533.4003)">
			<stop  offset="0" style="stop-color:#FFFFFF"/>
			<stop  offset="1" style="stop-color:#FFFFFF;stop-opacity:0"/>
		</linearGradient>
		<polygon class="st85" points="949.956,627.236 1502.34,385.449 638.229,57.332 		"/>
		
			<linearGradient id="SVGID_89_" gradientUnits="userSpaceOnUse" x1="2803.3223" y1="600.7394" x2="2482.8779" y2="1079.6454" gradientTransform="matrix(0.994 -0.1093 0.1093 0.994 -88.3441 -319.2079)">
			<stop  offset="0" style="stop-color:#FFFFFF"/>
			<stop  offset="1" style="stop-color:#FFFFFF;stop-opacity:0"/>
		</linearGradient>
		<polygon class="st86" points="2017.754,8.658 2991.845,929.213 3096.342,387.107 		"/>
		
			<linearGradient id="SVGID_90_" gradientUnits="userSpaceOnUse" x1="364.0394" y1="281.1006" x2="855.95" y2="281.1006" gradientTransform="matrix(0.9067 -0.4218 0.4218 0.9067 -234.9994 533.4003)">
			<stop  offset="0" style="stop-color:#FFFFFF"/>
			<stop  offset="1" style="stop-color:#FFFFFF;stop-opacity:0"/>
		</linearGradient>
		<polygon class="st87" points="201.067,607.671 685.523,686.911 555.708,203.799 		"/>
		
			<linearGradient id="SVGID_91_" gradientUnits="userSpaceOnUse" x1="413.212" y1="-2109.3279" x2="818.9172" y2="-2400.3311" gradientTransform="matrix(-0.4471 0.8945 -0.8945 -0.4471 362.5269 -1568.2463)">
			<stop  offset="0" style="stop-color:#FFFFFF"/>
			<stop  offset="1" style="stop-color:#FFFFFF;stop-opacity:0"/>
		</linearGradient>
		<polygon class="st88" points="2114.52,348.981 2355.117,-234.316 1798.77,-122.275 		"/>
		
			<linearGradient id="SVGID_92_" gradientUnits="userSpaceOnUse" x1="2257.4827" y1="-3054.1772" x2="1588.4227" y2="-3483.7839" gradientTransform="matrix(-0.4471 0.8945 -0.8945 -0.4471 362.5269 -1568.2463)">
			<stop  offset="0" style="stop-color:#FFFFFF"/>
			<stop  offset="1" style="stop-color:#FFFFFF;stop-opacity:0"/>
		</linearGradient>
		<polygon class="st89" points="2813.075,1952.525 2104.688,1236.072 2985.24,955.045 		"/>
		
			<linearGradient id="SVGID_93_" gradientUnits="userSpaceOnUse" x1="1359.1774" y1="-3243.8623" x2="1097.5973" y2="-2995.4934" gradientTransform="matrix(-0.4471 0.8945 -0.8945 -0.4471 362.5269 -1568.2463)">
			<stop  offset="0" style="stop-color:#FFFFFF"/>
			<stop  offset="1" style="stop-color:#FFFFFF;stop-opacity:0"/>
		</linearGradient>
		<polygon class="st90" points="2501.233,683.972 2289.751,1083.946 2950.464,873.08 		"/>
		
			<linearGradient id="SVGID_94_" gradientUnits="userSpaceOnUse" x1="2295.124" y1="-2677.3652" x2="1974.6796" y2="-2198.4592" gradientTransform="matrix(-0.4471 0.8945 -0.8945 -0.4471 362.5269 -1568.2463)">
			<stop  offset="0" style="stop-color:#FFFFFF"/>
			<stop  offset="1" style="stop-color:#FFFFFF;stop-opacity:0"/>
		</linearGradient>
		<polygon class="st91" points="2104.688,1034.738 803.066,1354.194 1201.941,1735.896 		"/>
		
			<linearGradient id="SVGID_95_" gradientUnits="userSpaceOnUse" x1="1026.6727" y1="-2399.9636" x2="1518.5833" y2="-2399.9636" gradientTransform="matrix(-0.4471 0.8945 -0.8945 -0.4471 362.5269 -1568.2463)">
			<stop  offset="0" style="stop-color:#FFFFFF"/>
			<stop  offset="1" style="stop-color:#FFFFFF;stop-opacity:0"/>
		</linearGradient>
		<polygon class="st92" points="2076.944,436.409 1648.448,675.925 2050.75,973.249 		"/>
	</g>
</g>
</svg>
