<svg xmlns="http://www.w3.org/2000/svg" width="223.305" height="223.306" viewBox="0 0 223.305 223.306">
  <g id="BitTube-symbol" transform="translate(-667.994 -2110.7)">
    <g id="menu_AirTime" data-name="menu AirTime" transform="translate(779.646 2222.354)">
      <g id="menu_AirTime-2" data-name="menu AirTime" transform="translate(-111.652 -111.653)">
        <path id="Pfad_936" data-name="Pfad 936" d="M190.506,32.634a111.647,111.647,0,1,0,32.8,78.851,111.646,111.646,0,0,0-32.8-78.851Z" transform="translate(0.002 -0.027)" fill="#343434"/>
        <path id="Trazado_1995" data-name="Trazado 1995" d="M140.371,89.271Zm18.84-59.312a91.411,91.411,0,1,0,26.516,64.895,91.41,91.41,0,0,0-26.516-64.895ZM94.317,177.89a83.037,83.037,0,1,1,83.037-83.037h0A83.037,83.037,0,0,1,94.317,177.89Zm0-153.514a4.187,4.187,0,0,0,0,8.374h0a62.1,62.1,0,0,1,54.428,32.8,4.187,4.187,0,0,0,3.489,2.093h2.093l2.093-2.093a4.187,4.187,0,0,0,0-2.791,70.477,70.477,0,0,0-62.1-38.379Zm46.054,64.895L75.477,49.5a6.978,6.978,0,0,0-10.467,6.28v78.85a6.978,6.978,0,0,0,6.978,6.978h3.489l64.894-40.472a6.978,6.978,0,0,0,2.791-9.769ZM72.686,133.231V57.87l62.1,37.681Z" transform="translate(17.34 17.302)" fill="#fff"/>
      </g>
    </g>
  </g>
</svg>
